<svg width="31" height="25" viewBox="0 0 31 25" fill="none" xmlns="http://www.w3.org/2000/svg">
<path d="M3.43359 12.507C2.70777 13.1948 2.70784 13.1953 2.70801 13.1954H2.70898L2.70996 13.1974C2.71138 13.1989 2.71326 13.2015 2.71582 13.2042C2.72091 13.2096 2.72877 13.2167 2.73828 13.2267C2.75745 13.2467 2.78581 13.2759 2.82227 13.3136C2.89531 13.3892 3.00218 13.4995 3.13965 13.6388C3.41485 13.9176 3.81322 14.3147 4.30762 14.7902C5.29525 15.74 6.67288 17.0095 8.22949 18.2814C9.78241 19.5502 11.5349 20.8389 13.2695 21.8156C14.9773 22.7771 16.7899 23.507 18.4336 23.507C24.5087 23.507 29.4336 18.5821 29.4336 12.507C29.4336 6.43183 24.5087 1.50696 18.4336 1.50696C16.7899 1.50696 14.9773 2.23686 13.2695 3.19836C11.5349 4.17498 9.78241 5.46367 8.22949 6.73254C6.67288 8.00444 5.29525 9.27389 4.30762 10.2238C3.81322 10.6992 3.41485 11.0963 3.13965 11.3751C3.00218 11.5144 2.89531 11.6247 2.82227 11.7003C2.78581 11.7381 2.75745 11.7672 2.73828 11.7872C2.72877 11.7972 2.72091 11.8043 2.71582 11.8097C2.71326 11.8124 2.71138 11.815 2.70996 11.8165L2.70898 11.8185H2.70801C2.70784 11.8187 2.70777 11.8191 3.43359 12.507ZM3.43359 12.507L2.70801 13.1945L2.05566 12.507L2.70801 11.8195L3.43359 12.507Z" fill="#3588FD" stroke="white" stroke-width="2"/>
</svg>
