<svg width="24" height="24" viewBox="0 0 24 24" fill="none" xmlns="http://www.w3.org/2000/svg">
<path fill-rule="evenodd" clip-rule="evenodd" d="M7 5.5C7 5.5 9 5 12 5C15 5 17 5.5 17 5.5L19 10L21 10.5V11.882C21 12.2607 20.786 12.607 20.4472 12.7764L20 13V18C20 18.5523 19.5523 19 19 19H17L16.5 18H7.5L7 19H5C4.44772 19 4 18.5523 4 18V13L3.55279 12.7764C3.214 12.607 3 12.2607 3 11.882V10.5L5 10L7 5.5ZM7 15C7.55228 15 8 14.5523 8 14C8 13.4477 7.55228 13 7 13C6.44772 13 6 13.4477 6 14C6 14.5523 6.44772 15 7 15ZM18 14C18 14.5523 17.5523 15 17 15C16.4477 15 16 14.5523 16 14C16 13.4477 16.4477 13 17 13C17.5523 13 18 13.4477 18 14ZM17.5 11H6.5L7 7.5C7 7.5 9.00014 7 12.0001 7C15 7 17 7.5 17 7.5L17.5 11Z" fill="#141414"/>
</svg>
