<svg width="24" height="24" viewBox="0 0 24 24" fill="none" xmlns="http://www.w3.org/2000/svg">
<path fill-rule="evenodd" clip-rule="evenodd" d="M13.8812 4.26332C13.9749 4.39484 14.0859 4.51365 14.2111 4.61646C14.8987 5.24937 15.9514 5.2433 16.5879 4.60275C17.1503 4.14539 17.507 3.48592 17.5845 2.75997C17.5758 2.23167 17.3182 1.72938 16.8883 1.40222C16.4904 1.0806 15.9766 0.941925 15.4809 1.02239C14.7952 1.19337 14.2081 1.61538 13.8357 2.20489C13.3349 2.79052 13.3542 3.66544 13.8812 4.26332ZM0 16.9236C0 14.0809 2.2 11.8473 5 11.8473C7.8 11.8473 10 14.0809 10 16.9236C10 19.7664 7.8 22 5 22C2.2 22 0 19.7664 0 16.9236ZM1.5 16.9236C1.5 18.8526 3.1 20.4771 5 20.4771C6.9 20.4771 8.5 18.8526 8.5 16.9236C8.5 14.9946 6.9 13.3702 5 13.3702C3.1 13.3702 1.5 14.9946 1.5 16.9236ZM13.2 7.8877L10.8 10.3244C10.8 10.3244 12.2444 11.8209 12.6591 12.2569C12.9922 12.6071 12.9922 12.6486 12.9922 13.2362C12.9836 15.3908 12.6066 18.9542 12.6066 18.9542H11V13.8778L7.8 11.035C7.4 10.7305 7.2 10.2228 7.2 9.61366C7.2 9.10603 7.4 8.59839 7.8 8.19228L10.6 5.34953C11.2118 4.74037 11.2131 4.74037 12 4.74037C12.6148 4.74037 12.8239 4.70712 12.9869 4.77868C13.1369 4.8445 13.2479 4.99898 13.6 5.34953C13.6 5.34953 15.5676 7.4926 16.4676 8.40634L19.1 9.10968V10.4402L15.5 10.0988C15.5 10.0988 13.829 8.4167 13.2 7.8877ZM14 16.9236C14 14.0809 16.2 11.8473 19 11.8473C21.8 11.8473 24 14.0809 24 16.9236C24 19.7664 21.8 22 19 22C16.2 22 14 19.7664 14 16.9236ZM15.5 16.9236C15.5 18.8526 17.1 20.4771 19 20.4771C20.9 20.4771 22.5 18.8526 22.5 16.9236C22.5 14.9946 20.9 13.3702 19 13.3702C17.1 13.3702 15.5 14.9946 15.5 16.9236Z" fill="#898989"/>
</svg>
