<svg width="24" height="24" viewBox="0 0 24 24" fill="none" xmlns="http://www.w3.org/2000/svg">
<path fill-rule="evenodd" clip-rule="evenodd" d="M12.0002 21.8182C7.18794 21.8182 3.27295 17.9027 3.27295 13.0904C3.27295 8.27809 7.18794 4.36364 12.0002 4.36364C16.813 4.36364 20.7275 8.27809 20.7275 13.0904C20.7275 17.9027 16.813 21.8182 12.0002 21.8182ZM0 11.8899V15.144H1.608C2.37704 20.1489 6.73722 24 12 24C17.2628 24 21.623 20.1489 22.392 15.144H24V11.8899C24 5.33368 18.6172 0 12 0C5.3833 0 0 5.33368 0 11.8899ZM6.54541 13.0909H8.2868C8.58176 11.0938 10.1322 9.56484 12 9.56484V7.63636C9.17993 7.63636 6.85228 10.0269 6.54541 13.0909Z" fill="#3C3C3C"/>
</svg>
